inDegrees=no
num_controls=7
num_derivatives=13
num_iterations=89
num_multipliers=7
num_parameters=0
num_slacks=7
num_states=26
objective=0.454573
objective_accelerations=0.044772
objective_balance=0.000820
objective_effort=0.036511
objective_height=0.366368
objective_ligament=0.006102
solver_duration=1005.651047
status=Solve_Succeeded
success=true
DataType=double
version=3
OpenSimVersion=4.5
endheader
time	/jointset/ground_pelvis/pelvis_tilt/value	/jointset/ground_pelvis/pelvis_tx/value	/jointset/ground_pelvis/pelvis_ty/value	/jointset/hip_r/hip_flexion_r/value	/jointset/hip_r/hip_adduction_r/value	/jointset/hip_r/hip_rotation_r/value	/jointset/back/lumbar_extension/value	/jointset/patellofemoral_r/patellar_flexion_r/value	/jointset/knee_r/knee_flexion_r/value	/jointset/knee_r/knee_adduction_r/value	/jointset/knee_r/knee_rotation_r/value	/jointset/ankle_r/ankle_angle_r/value	/jointset/subtalar_r/subtalar_angle_r/value	/jointset/ground_pelvis/pelvis_tilt/speed	/jointset/ground_pelvis/pelvis_tx/speed	/jointset/ground_pelvis/pelvis_ty/speed	/jointset/hip_r/hip_flexion_r/speed	/jointset/hip_r/hip_adduction_r/speed	/jointset/hip_r/hip_rotation_r/speed	/jointset/back/lumbar_extension/speed	/jointset/patellofemoral_r/patellar_flexion_r/speed	/jointset/knee_r/knee_flexion_r/speed	/jointset/knee_r/knee_adduction_r/speed	/jointset/knee_r/knee_rotation_r/speed	/jointset/ankle_r/ankle_angle_r/speed	/jointset/subtalar_r/subtalar_angle_r/speed	/forceset/tau_hip_flexion_r	/forceset/tau_hip_adduction_r	/forceset/tau_hip_rotation_r	/forceset/tau_knee_flexion_r	/forceset/tau_ankle_angle_r	/forceset/tau_subtalar_angle_r	/forceset/tau_lumbar_extension	lambda_cid13_p0	lambda_cid14_p0	lambda_cid14_p1	lambda_cid14_p2	lambda_cid14_p3	lambda_cid14_p4	lambda_cid14_p5	/jointset/ground_pelvis/pelvis_tilt/accel	/jointset/ground_pelvis/pelvis_tx/accel	/jointset/ground_pelvis/pelvis_ty/accel	/jointset/hip_r/hip_flexion_r/accel	/jointset/hip_r/hip_adduction_r/accel	/jointset/hip_r/hip_rotation_r/accel	/jointset/back/lumbar_extension/accel	/jointset/patellofemoral_r/patellar_flexion_r/accel	/jointset/knee_r/knee_flexion_r/accel	/jointset/knee_r/knee_adduction_r/accel	/jointset/knee_r/knee_rotation_r/accel	/jointset/ankle_r/ankle_angle_r/accel	/jointset/subtalar_r/subtalar_angle_r/accel	gamma_cid13_p0	gamma_cid14_p0	gamma_cid14_p1	gamma_cid14_p2	gamma_cid14_p3	gamma_cid14_p4	gamma_cid14_p5
1	-0.2082071373117454	-0.002836891770713985	0.655739350122706	1.348525901409086	-0.2541147287204578	0.09759217452626209	-0.7853951164321992	1.477714927836234	1.477714927836232	0.04794612272502333	0.174530287281385	0.4362698090695594	0.1413934491041001	0.07085427011834296	0.005162481638164852	0.01487036886786687	-0.1009309986526841	-0.001611511910660772	-0.007694183486172472	0.0005286662514492712	-0.0175431714942791	-0.01754317149427937	-0.0007754530415186674	-0.000111627302691812	0.01236626654048727	0.002807230623791012	-0.3173715734974454	0.02733258056776836	0.05072003729902024	-0.4640724921697447	-0.02576661842472966	-0.0195534023633451	0.3480699999752055	-0.04051289005635051	-61.01380889129219	-22.69174097317656	8.056446308314767	9.027369623451065	-762.6783670976246	64.56962134813421	1.234395170052324	0.1347253358599746	1.697198377897603	-5.116607976554402	-0.08167536960566867	-1.514521237461604	0.03376503221066631	-4.878667555554308	-4.878667555554308	0.1150438300085019	0.0008699736771291466	-1.235894678065911	-0.6805934942186626	-3.644550278101418e-10	-1.620777995119692e-09	-2.973875970361373e-09	1.077527756912565e-09	2.437036989970052e-09	-4.565221184598468e-09	-1.259451455778114e-08
1.01	-0.2074373764049578	-0.00277831034684814	0.6559727522441163	1.347261306527249	-0.2541349085646804	0.09743948621019924	-0.785385972594412	1.477296052363388	1.477296052363385	0.04794390405353832	0.1745291675735856	0.4363321790994482	0.1413877501209239	0.08311372093464943	0.006578823431966618	0.03180718877603225	-0.1520248441607823	-0.002432066258344237	-0.02284287827134135	0.001440923181221577	-0.06620646734359563	-0.06620646734359595	0.0003342912245793462	-9.616611369431565e-05	0.0001559348767557962	-0.003938954021906564	-0.3182472757656765	0.02736765422261511	0.05069775571002531	-0.4637037457368088	-0.02623167112667206	-0.0194682795924265	0.3491818596145643	-0.04049988948308395	-61.17530793813927	-22.67020527581725	8.03834164498978	8.805574378598898	-763.1801364455797	64.57286033317472	1.224091514511025	0.148842890890365	1.691492217024819	-5.111303009058641	-0.08338590361965942	-1.51495498722995	0.1410793045473965	-4.856342033174946	-4.856342033174914	0.1093269877620103	0.004305445481562955	-1.206373612288452	-0.6704204233365738	-1.027031909081057e-09	-3.744949704200787e-09	-2.175241675779294e-09	-1.700572682580233e-09	6.188150929137441e-09	-7.889041537839262e-09	-1.833164776074601e-08
1.02	-0.2065445466945935	-0.002704814647094103	0.6563754362485583	1.345484667156102	-0.2541635220396353	0.0971353286686483	-0.7853634815310877	1.476391307645337	1.476391307645337	0.04795286027727153	0.1745286867284692	0.4362738915723725	0.1413148313965722	0.09546803083460889	0.008145336815803155	0.04872674547414051	-0.2033398965137208	-0.003298238056823284	-0.03798802858392854	0.003198111358467272	-0.114717020535098	-0.1147170205350983	0.001459526004742359	1.614523412280391e-05	-0.01176524485744439	-0.0106367176112553	-0.3191229780339156	0.02740272787745639	0.05067547412107336	-0.4633349993038726	-0.02669672382861646	-0.01938315682151998	0.3502937192539147	-0.04049286031598914	-61.34436709337724	-22.64682520243039	8.016324467606639	8.592299102496186	-763.8237812528411	64.57726642941569	1.253366986782924	0.1647596538669281	1.693745735886179	-5.160849345522477	-0.09079885976478526	-1.513812342945269	0.2027512817053208	-4.848119023991479	-4.84811902399147	0.1181419328214986	0.02024000544105509	-1.178064292159656	-0.6709092829488958	-9.019268887785297e-10	-3.040564578823655e-09	-3.016779101086658e-09	-5.40749443965715e-09	5.161983584601509e-09	-9.713218919960256e-09	-1.742577833042732e-08
1.03	-0.205529107255291	-0.002615033877125959	0.6569470525821437	1.343195519387079	-0.2542008116795962	0.09667989398390604	-0.7853180143906219	1.475002031200425	1.475002031200426	0.04797305909903568	0.1745294138658927	0.4360973231690115	0.1411753629555507	0.1074924273682894	0.009822863698481605	0.06557558735150135	-0.2543487224927243	-0.004146429637706269	-0.05308152671324259	0.006157476528876114	-0.1631312623468384	-0.1631312623468383	0.002575815951771571	0.0001065096922700407	-0.02355186831118746	-0.017231437207789	-0.3194690389629961	0.02745246942581164	0.05065012399624563	-0.4629437815905969	-0.0270340820527082	-0.01931210500646155	0.3510183603036376	-0.04051535216684365	-61.45814650309103	-22.61876044093037	7.992284731913354	8.501598341136601	-764.1616709920168	64.57573586787157	1.157861533074654	0.1710569945002375	1.677311014571089	-5.049759276664032	-0.07984097040418257	-1.50451299259867	0.3818531037778866	-4.837025691723607	-4.837025691723521	0.1077103137040371	1.63101242107814e-05	-1.179476277014237	-0.6499249662241076	-7.687842980517784e-10	-2.307316628605096e-09	-3.875052972515352e-09	-9.123893965280848e-09	4.087068471864495e-09	-1.15220938227841e-08	-1.645212315895263e-08
1.04	-0.2043972467413717	-0.002508116280524509	0.6576865288546846	1.340400511347754	-0.2542461855679982	0.09607404542894012	-0.7852350888046362	1.473128822551003	1.473128822551003	0.0480042883778678	0.1745303609767261	0.4358027855501054	0.1409707129849198	0.1187522457585349	0.0115727021424642	0.08229873326526324	-0.3045119505747132	-0.004915087744753991	-0.06807080262952539	0.01068980046205214	-0.2115034614369107	-0.2115034614369102	0.003665617421219008	6.013991532268208e-05	-0.03535908796623501	-0.0236730235330625	-0.3198150998920524	0.02750221097417219	0.0506247738714661	-0.4625525638773184	-0.02737144027680287	-0.0192410531913955	0.3517430013533819	-0.04054376567975621	-61.57954820262618	-22.58900306115128	7.964517550081059	8.417706368683351	-764.642359413528	64.57523178087844	1.100451358095902	0.1792219661277693	1.668606543166396	-4.99172976611956	-0.07489216499773274	-1.492967900339017	0.5173430342587459	-4.839710479657868	-4.83971047965787	0.1128442373051414	-0.007106841577868768	-1.18218353242053	-0.6402826286968452	-1.564653691527515e-09	-4.341302191172465e-09	1.832517849732917e-09	-1.354680908278177e-08	6.718486407721363e-09	-1.654474402925333e-08	-1.67702627633518e-08
1.05	-0.2031551411320833	-0.002383265385364988	0.6585927419585353	1.337106430198417	-0.2542989689374269	0.09531871144069963	-0.7851006915155191	1.470772110941547	1.470772110941549	0.04804633760438667	0.174530473869907	0.4353902664812844	0.140702297557608	0.1296858589424565	0.01341679743487281	0.09893606553592268	-0.3543275865840229	-0.005640608379156035	-0.08298849226051493	0.01628361043264875	-0.2598312834278391	-0.2598312834278387	0.004747412189328338	-2.873532126260371e-05	-0.04712940587079446	-0.02999687706264589	-0.3198865726590597	0.02748883632084376	0.05057978964300898	-0.4618381953100144	-0.02762577422104936	-0.0191488157326646	0.3521608039217249	-0.04057074276137628	-61.64334266236027	-22.53140892431164	7.922546913730953	8.284632679774498	-764.7267514638062	64.56275420844085	1.092363794289255	0.1899033135546924	1.660118888362289	-4.979977073467422	-0.0712365464079453	-1.4900487960845	0.5944929391142124	-4.828181018605622	-4.828181018605588	0.1063286341855366	-0.008457824621804609	-1.172158956049101	-0.6264597630162436	-2.389554709509573e-09	-6.461763801014378e-09	7.745271318658554e-09	-1.799180281252885e-08	9.465727251346766e-09	-2.166782471396145e-08	-1.712877095449701e-08
1.06	-0.2018031898918082	-0.002239393536729799	0.6596650928489621	1.333313493377966	-0.2543589784199504	0.09441442469583429	-0.784907537534564	1.467932348520223	1.467932348520223	0.04809930108609685	0.1745299620187478	0.4348605036261013	0.1403710389854145	0.1407213719563399	0.01537689283759779	0.1155262905804462	-0.4042830847985579	-0.006360310363419478	-0.09786135395572815	0.02244113882940758	-0.3081136238105792	-0.3081136238105786	0.005848468462307719	-6.480895476646104e-05	-0.05880784523837202	-0.03624165250931523	-0.3199580454260325	0.02747546166752589	0.05053480541459868	-0.4611238267427071	-0.02788010816529861	-0.01905657827391615	0.3525786064900987	-0.04060390259416025	-61.71495169577088	-22.47228114628782	7.877017356038214	8.157547779154051	-764.9558260965341	64.55159939972786	1.120831324088241	0.2024219881910599	1.659185097939205	-5.019702207164636	-0.07372843497001612	-1.484002313183754	0.6300867194911792	-4.830614158020184	-4.830614158020172	0.1166965382791521	0.003453479038418209	-1.163807825024121	-0.6244670121140277	-3.187065732340819e-09	-6.707874886667314e-09	8.832176354875954e-09	-2.353845060783037e-08	9.332465898357631e-09	-2.3562635170824e-08	-2.015580312936791e-08
1.07	-0.2003409455884809	-0.002075352498088419	0.6609029600551725	1.329021133785927	-0.2544261098466496	0.09336166765678426	-0.784649373438823	1.464610109245026	1.464610109245023	0.04816330782083392	0.1745293352073652	0.43421428611682	0.1399777734054017	0.1516863408386754	0.0174495764988702	0.1320242017553274	-0.4541282258757173	-0.007060443502038252	-0.1126764526990986	0.02934880339623089	-0.3563145396070747	-0.3563145396070733	0.006952544046945534	-5.420126254992505e-05	-0.07043305374898837	-0.04239382836193692	-0.3196715681602059	0.02741111735298284	0.05047329364473154	-0.4601488583263333	-0.02798455918821206	-0.01895620561752279	0.3527379675878941	-0.04064939325241517	-61.70805659036131	-22.38986400668384	7.820908846819181	7.997265695306726	-764.7596540300456	64.52802370918501	1.078157446754289	0.2124326015288164	1.64164670981479	-4.957829528250088	-0.06732871148143811	-1.478229989571864	0.7446747868941205	-4.811875739302924	-4.811875739302777	0.1072180252758105	0.0008110051478506633	-1.161487894157738	-0.6079494784680685	-3.983119840536383e-09	-6.854286476352739e-09	9.662387325523735e-09	-2.914369702364011e-08	9.045986343420897e-09	-2.528572912620539e-08	-2.332477806933061e-08
1.08	-0.1987702860410428	-0.001890036413547529	0.662305116889642	1.324232140889057	-0.2545000771963719	0.09216116636337168	-0.7843174190050919	1.460806451722096	1.460806451722096	0.04823834630275213	0.1745290037910742	0.4334518944164173	0.1395235147455361	0.1624044207789334	0.01963190201749985	0.1483842162322906	-0.5036097457632166	-0.007727494967600649	-0.1274102048287968	0.03719920642770136	-0.4043972733571176	-0.4043972733571152	0.008054817900374019	-5.729936950202911e-06	-0.08204268346269826	-0.04844026847983186	-0.3193850908944157	0.02734677303843661	0.0504117818748874	-0.4591738899099609	-0.02808901021112183	-0.0188558329611342	0.3528973286856557	-0.04070107823292508	-61.70913336856534	-22.30601876943734	7.761347358697166	7.84152390431532	-764.7098519562091	64.50627554277438	1.071453535672696	0.2243503596625268	1.631605758355605	-4.94697796923264	-0.067112100358748	-1.467732990449298	0.8186344124206072	-4.806977748729655	-4.806977748729636	0.1163361920372889	0.01102620571506252	-1.160692065642794	-0.6033198651686733	-4.71301604957147e-09	-7.254202309277694e-09	6.10402562238667e-09	-3.564495089869791e-08	9.921967843035791e-09	-2.713775980870547e-08	-3.095065133440934e-08
